<?xml version="1.0" standalone="no"?><!DOCTYPE svg PUBLIC "-//W3C//DTD SVG 1.1//EN" "http://www.w3.org/Graphics/SVG/1.1/DTD/svg11.dtd"><svg t="1664422254759" class="icon" viewBox="0 0 1024 1024" version="1.1" xmlns="http://www.w3.org/2000/svg" p-id="2063" xmlns:xlink="http://www.w3.org/1999/xlink" width="200" height="200"><path d="M908.9 482.4V811c0 49.3-40.3 89.6-89.6 89.6h-224c-49.3 0-89.6-40.3-89.6-89.6V482.4h403.2z" fill="#8EA520" p-id="2064"></path><path d="M819.3 915.5h-224c-57.6 0-104.5-46.9-104.5-104.5V467.5h433.1V811c-0.1 57.6-46.9 104.5-104.6 104.5zM520.6 497.4V811c0 41.2 33.5 74.7 74.7 74.7h224c41.2 0 74.7-33.5 74.7-74.7V497.4H520.6z" fill="#434343" p-id="2065"></path><path d="M306 123.3L161.8 202c-43.3 23.6-59.4 78.3-35.8 121.6l107.2 196.7c23.6 43.3 78.3 59.4 121.6 35.8L499 477.3l-193-354z" fill="#8EA520" p-id="2066"></path><path d="M312.2 581.8c-10 0-20-1.4-29.8-4.3-26.9-7.9-49-25.7-62.3-50.1L112.9 330.7c-27.6-50.6-8.9-114.2 41.7-141.8l157.3-85.8 207.3 380.2-157.3 85.8c-15.4 8.4-32.5 12.7-49.7 12.7zM300 143.6l-131.1 71.5c-36.1 19.7-49.5 65.2-29.8 101.3L246.3 513c9.5 17.4 25.3 30.1 44.5 35.8 19.2 5.6 39.4 3.5 56.8-6l131.1-71.5L300 143.6z" fill="#434343" p-id="2067"></path><path d="M871.6 482.4c-37.1 0-67.2-30.1-67.2-67.2V363c0-24.6-20.2-44.8-44.8-44.8H655c-24.6 0-44.8 20.2-44.8 44.8v52.3c0 37.1-30.1 67.2-67.2 67.2h328.6v-0.1z" fill="#DDDDDD" p-id="2068"></path><path d="M871.6 497.4H543c-8.2 0-14.9-6.7-14.9-14.9s6.7-14.9 14.9-14.9c28.8 0 52.3-23.4 52.3-52.3V363c0-32.9 26.8-59.7 59.7-59.7h104.5c32.9 0 59.7 26.8 59.7 59.7v52.3c0 28.8 23.4 52.3 52.3 52.3 8.2 0 14.9 6.7 14.9 14.9s-6.6 14.9-14.8 14.9z m-265.2-29.9h201.9c-11.8-14.2-18.8-32.4-18.8-52.3V363c0-16.5-13.4-29.9-29.9-29.9H655c-16.5 0-29.9 13.4-29.9 29.9v52.3c0.1 19.8-7 38-18.7 52.2z" fill="#434343" p-id="2069"></path><path d="M826.8 437.6h-21.9c-8.2 0-14.9-6.7-14.9-14.9s6.7-14.9 14.9-14.9h21.9c12.4 0 22.4-10 22.4-22.4s-10-22.4-22.4-22.4h-17.6c-8.2 0-14.9-6.7-14.9-14.9s6.7-14.9 14.9-14.9h17.6c28.8 0 52.3 23.4 52.3 52.3s-23.5 52.1-52.3 52.1zM670 437.6c-8.2 0-14.9-6.7-14.9-14.9v-44.8c0-8.2 6.7-14.9 14.9-14.9s14.9 6.7 14.9 14.9v44.8c0 8.2-6.7 14.9-14.9 14.9zM744.6 437.6c-8.2 0-14.9-6.7-14.9-14.9v-44.8c0-8.2 6.7-14.9 14.9-14.9s14.9 6.7 14.9 14.9v44.8c0.1 8.2-6.6 14.9-14.9 14.9z" fill="#434343" p-id="2070"></path><path d="M758.1 208.2c0.4 1.6 0.7 3.3 0.9 5 0.3 2.4 0.5 4.8 0.5 7.3 0 21.5-13 40-31.6 48v-0.1c1.1-2.7 1.8-5.7 1.8-8.9 0-22.9-22.4-41.1-22.4-41.1s-22.4 18.3-22.4 41.1c0 3.2 0.6 6.3 1.8 9-18.6-8-31.7-26.5-31.7-48.1 0-14.4 5.9-27.5 15.3-37 1.2-1.2 10-9.9 11.4-11 19.2-18.1 25.6-49.1 25.6-49.1 44.8 44.8 50.8 84.9 50.8 84.9z" fill="#EF4545" p-id="2071"></path><path d="M686.7 283.4c-2 0-4-0.4-5.9-1.2-24.7-10.6-40.7-34.9-40.7-61.8 0-17.9 7-34.8 19.7-47.5 0.1-0.1 8.7-8.7 11.8-11.5 15.2-14.5 21-40.8 21-41.1 1.1-5.4 5.1-9.7 10.3-11.3 5.3-1.6 11-0.1 14.9 3.7 44.8 44.8 53.7 85.6 54.9 92.4 0.5 1.9 0.8 3.9 1.1 5.9 0.4 3.1 0.6 6.2 0.6 9.3 0 26.9-15.9 51.1-40.6 61.7-3.7 1.6-7.9 1.6-11.6 0.1-3.7-1.5-6.7-4.5-8.2-8.3v-0.1c-1.4-3.6-1.4-7.6 0.1-11.2 0.4-1 0.6-2.1 0.6-3.2 0-6.8-3.5-13.7-7.5-19.2-4 5.5-7.5 12.4-7.5 19.2 0 1.1 0.2 2.2 0.6 3.2 1.3 3 1.5 6.3 0.7 9.4-1.1 4.2-3.9 7.8-7.9 9.8-1.8 1.2-4.1 1.7-6.4 1.7z m4.6-99.5c-1.4 1.3-8.6 8.3-10.4 10.1-7.1 7.1-10.9 16.4-10.9 26.4 0 6.3 1.6 12.3 4.4 17.7 7.3-17.7 21.4-29.6 23.5-31.4 5.5-4.5 13.4-4.5 18.9 0 2.1 1.7 16.1 13.6 23.5 31.4 2.9-5.3 4.4-11.4 4.4-17.7 0-1.7-0.1-3.5-0.4-5.2-0.2-1.2-0.4-2.4-0.7-3.6-0.1-0.4-0.2-0.7-0.2-1.1 0-0.1-1.5-8.8-7.7-22.3-4.2-9.2-11.2-21.8-22.5-36-4.7 10.4-11.5 22-21.2 31.1-0.2 0.2-0.5 0.4-0.7 0.6z" fill="#434343" p-id="2072"></path><path d="M595.3 482.4h224V572h-224z" fill="#FFF3CB" p-id="2073"></path><path d="M908.9 587H505.7c-8.2 0-14.9-6.7-14.9-14.9v-89.6c0-8.2 6.7-14.9 14.9-14.9h403.2c8.2 0 14.9 6.7 14.9 14.9V572c0 8.3-6.6 15-14.9 15z m-388.3-29.9H894v-59.7H520.6v59.7z" fill="#434343" p-id="2074"></path><path d="M819.3 482.4h89.6V572h-89.6z" fill="#CCC2A3" p-id="2075"></path><path d="M908.9 572v239c0 49.3-40.3 89.6-89.6 89.6h-89.6c49.3 0 89.6-40.3 89.6-89.6V572h89.6z" fill="#728324" p-id="2076"></path><path d="M505.7 482.4h89.6V572h-89.6z" fill="#FFF7DC" p-id="2077"></path><path d="M684.9 900.6h-89.6c-49.3 0-89.6-40.3-89.6-89.6V572h89.6v239c0 49.3 40.3 89.6 89.6 89.6z" fill="#B0BF68" p-id="2078"></path><path d="M804.4 415.2V363c0-24.6-20.2-44.8-44.8-44.8h-44.8c24.6 0 44.8 20.2 44.8 44.8v52.3c0 37.1 30.1 67.2 67.2 67.2h44.8c-37.1-0.1-67.2-30.2-67.2-67.3z" fill="#B1B1B1" p-id="2079"></path><path d="M610.2 415.2V363c0-24.6 20.2-44.8 44.8-44.8h44.8c-24.6 0-44.8 20.2-44.8 44.8v52.3c0 37.1-30.1 67.2-67.2 67.2H543c37.2-0.1 67.2-30.2 67.2-67.3z" fill="#F1F1F1" p-id="2080"></path><path d="M819.3 915.5h-224c-57.6 0-104.5-46.9-104.5-104.5V482.4c0-8.2 6.7-14.9 14.9-14.9h403.2c8.2 0 14.9 6.7 14.9 14.9V811c0 57.6-46.8 104.5-104.5 104.5zM520.6 497.4V811c0 41.2 33.5 74.7 74.7 74.7h224c41.2 0 74.7-33.5 74.7-74.7V497.4H520.6z" fill="#434343" p-id="2081"></path><path d="M908.9 587H505.7c-8.2 0-14.9-6.7-14.9-14.9v-89.6c0-8.2 6.7-14.9 14.9-14.9h403.2c8.2 0 14.9 6.7 14.9 14.9V572c0 8.3-6.6 15-14.9 15z m-388.3-29.9H894v-59.7H520.6v59.7z" fill="#434343" p-id="2082"></path><path d="M871.6 497.4H543c-8.2 0-14.9-6.7-14.9-14.9s6.7-14.9 14.9-14.9c28.8 0 52.3-23.4 52.3-52.3V363c0-32.9 26.8-59.7 59.7-59.7h104.5c32.9 0 59.7 26.8 59.7 59.7v52.3c0 28.8 23.4 52.3 52.3 52.3 8.2 0 14.9 6.7 14.9 14.9s-6.6 14.9-14.8 14.9z m-265.2-29.9h201.9c-11.8-14.2-18.8-32.4-18.8-52.3V363c0-16.5-13.4-29.9-29.9-29.9H655c-16.5 0-29.9 13.4-29.9 29.9v52.3c0.1 19.8-7 38-18.7 52.2z" fill="#434343" p-id="2083"></path><path d="M278 497.8L170.8 301.1c-23.6-43.3-7.5-98 35.8-121.6l100.3-54.7-0.9-1.6L161.8 202c-43.3 23.6-59.4 78.3-35.8 121.6l107.2 196.7c23.6 43.3 78.3 59.4 121.6 35.8l28.4-15.5c-39.9 12.2-84.5-4.9-105.2-42.8z" fill="#B0BF68" p-id="2084"></path><path d="M312.2 581.8c-10 0-20-1.4-29.8-4.3-26.9-7.9-49-25.7-62.3-50.1L112.9 330.7c-27.6-50.6-8.9-114.2 41.7-141.8l144.2-78.6c7.2-3.9 16.3-1.3 20.3 6l193 354c1.9 3.5 2.3 7.6 1.2 11.4s-3.7 7-7.2 8.9l-144.2 78.6c-15.4 8.3-32.5 12.6-49.7 12.6zM300 143.6l-131.1 71.5c-36.1 19.7-49.5 65.2-29.8 101.3L246.3 513c9.5 17.4 25.3 30.1 44.5 35.8 19.2 5.6 39.4 3.5 56.8-6l131.1-71.5L300 143.6z" fill="#434343" p-id="2085"></path></svg>