<?xml version="1.0" standalone="no"?><!DOCTYPE svg PUBLIC "-//W3C//DTD SVG 1.1//EN" "http://www.w3.org/Graphics/SVG/1.1/DTD/svg11.dtd"><svg t="1664542319748" class="icon" viewBox="0 0 1024 1024" version="1.1" xmlns="http://www.w3.org/2000/svg" p-id="12305" xmlns:xlink="http://www.w3.org/1999/xlink" width="200" height="200"><path d="M62 512c0 247.43 200.57 448 448 448s448-200.57 448-448S757.43 64 510 64 62 264.57 62 512z" fill="#94BFFF" p-id="12306"></path><path d="M624.352 795.898c52.124-35.056 126.516-93.7 171.382-167.15 14.246-23.318-0.828-51.272-28.268-55.014-38.35-5.22-75.578-7.84-75.578-7.84l-10.394-270.68c-0.74-19.354-6.204-39.828-24.662-46.638-8.4-3.114-19.532-5.376-34.116-5.376-16.172 0-28.088 2.778-36.758 6.406-16.464 6.878-21.616 25.11-22.714 42.65-4.456 70.18-14.74 269.674-3.046 471.296 1.882 32.436 36.848 50.714 64.154 32.346zM395.648 228.102c-52.124 35.056-126.516 93.7-171.382 167.15-14.246 23.318 0.828 51.272 28.268 55.014 38.35 5.22 75.578 7.84 75.578 7.84l10.394 270.68c0.74 19.354 6.204 39.828 24.662 46.638 8.4 3.114 19.532 5.376 34.116 5.376 16.172 0 28.088-2.778 36.758-6.406 16.464-6.878 21.616-25.11 22.714-42.65 4.456-70.18 14.74-269.674 3.046-471.296-1.882-32.436-36.848-50.714-64.154-32.346z" fill="#1677FF" p-id="12307"></path></svg>