<?xml version="1.0" standalone="no"?><!DOCTYPE svg PUBLIC "-//W3C//DTD SVG 1.1//EN" "http://www.w3.org/Graphics/SVG/1.1/DTD/svg11.dtd"><svg t="1664356900995" class="icon" viewBox="0 0 1024 1024" version="1.1" xmlns="http://www.w3.org/2000/svg" p-id="2799" xmlns:xlink="http://www.w3.org/1999/xlink" width="200" height="200"><path d="M826.2 327.9L346.9 807.1c-20.2 20.2-53.3 20.2-73.5 0l-37.5-37.5c-20.2-20.2-20.2-53.3 0-73.5l479.3-479.3c20.2-20.2 53.3-20.2 73.5 0l37.5 37.5c20.2 20.3 20.2 53.3 0 73.6z" fill="#FFFFFF" p-id="2800"></path><path d="M310.1 831.9c-17.1 0-34.3-6.5-47.3-19.6l-32.2-32.2c-12.6-12.6-19.5-29.4-19.5-47.3s6.9-34.7 19.5-47.3l474-474c26.1-26.1 68.5-26.1 94.6 0l32.2 32.2c26.1 26.1 26.1 68.5 0 94.6l-474 474c-13 13.1-30.2 19.6-47.3 19.6z m441.8-617.5c-11.4 0-22.8 4.3-31.5 13l-474 474c-8.4 8.4-13 19.6-13 31.5 0 12 4.6 23.2 13 31.5l32.2 32.2c17.4 17.4 45.7 17.4 63.1 0l474-474c8.4-8.4 13-19.6 13-31.5 0-12-4.6-23.2-13-31.5l-32.2-32.2c-8.7-8.7-20.2-13-31.6-13z" fill="#603813" p-id="2801"></path><path d="M839.6 314.4L701.5 452.5c-10.9 10.9-28.7 10.9-39.6 0l-71.4-71.4c-10.9-10.9-10.9-28.7 0-39.6l138.1-138.1c12.8-12.8 33.8-12.8 46.7 0l64.3 64.3c12.8 12.9 12.8 33.9 0 46.7z" fill="#F7AF5C" p-id="2802"></path><path d="M681.7 483.5c-2.9 0-5.7-1.1-7.9-3.3l-111-111c-2.1-2.1-3.3-4.9-3.3-7.9s1.2-5.8 3.3-7.9l141.8-141.8c26.1-26.1 68.5-26.1 94.6 0l32.2 32.2c26.1 26.1 26.1 68.5 0 94.6L689.6 480.2c-2.2 2.2-5.1 3.3-7.9 3.3z m-95.3-122.2l95.2 95.2 133.9-133.9c17.4-17.4 17.4-45.7 0-63.1l-32.2-32.2c-17.4-17.4-45.7-17.4-63.1 0l-133.8 134z" fill="#603813" p-id="2803"></path><path d="M321.8 775.8l-0.4 0.4c-7.6 7.6-20.1 7.6-27.8 0l-26.8-26.8c-7.6-7.6-7.6-20.1 0-27.8l0.4-0.4c7.6-7.6 20.1-7.6 27.8 0l26.8 26.8c7.7 7.7 7.7 20.2 0 27.8z" fill="#E9440B" p-id="2804"></path><path d="M221.2 611.3c-2.2 0-4.4-0.6-6.4-2-22.4-15.6-55.2-50.9-35.9-84.4 5.1-8.9 11.9-15.8 18.4-22.5 19.8-20.4 37-38 2.4-109.8-2.7-5.5-0.4-12.2 5.2-14.9 5.5-2.7 12.2-0.4 14.9 5.2 38.4 79.5 20.7 107.1-6.4 135-5.8 6-11.3 11.7-15.1 18.1-13.9 23.9 28.9 54.6 29.3 54.9 5.1 3.5 6.3 10.5 2.8 15.5-2.2 3.2-5.7 4.9-9.2 4.9z" fill="#603813" p-id="2805"></path></svg>