<?xml version="1.0" standalone="no"?><!DOCTYPE svg PUBLIC "-//W3C//DTD SVG 1.1//EN" "http://www.w3.org/Graphics/SVG/1.1/DTD/svg11.dtd"><svg t="1664360984423" class="icon" viewBox="0 0 1024 1024" version="1.1" xmlns="http://www.w3.org/2000/svg" p-id="19376" xmlns:xlink="http://www.w3.org/1999/xlink" width="200" height="200"><path d="M512 238.933333c215.620267 0 392.2944 83.285333 408.405333 189.0304H921.6v249.173334c0 27.0336-17.237333 51.063467-42.837333 59.733333-117.896533 39.799467-247.637333 59.6992-389.290667 59.6992-138.8544 0-254.8736-19.114667-348.023467-57.412267A63.010133 63.010133 0 0 1 102.4 680.8576V427.963733h1.194667C119.7056 322.218667 296.379733 238.933333 512 238.933333z" fill="#FFD88E" p-id="19377"></path><path d="M512 238.933333c215.620267 0 392.2944 83.285333 408.405333 189.0304H921.6v249.173334c0 27.0336-17.237333 51.063467-42.837333 59.733333-117.896533 39.799467-247.637333 59.6992-389.290667 59.6992-138.8544 0-254.8736-19.114667-348.023467-57.412267A63.010133 63.010133 0 0 1 102.4 680.8576V427.963733h1.194667C119.7056 322.218667 296.379733 238.933333 512 238.933333z m0 27.101867C313.002667 266.0352 149.981867 340.206933 131.2768 427.2128l-0.887467 4.846933-0.887466 5.7344v243.063467c0 13.243733 7.2704 25.2928 18.705066 31.5392l3.549867 1.706667c89.565867 36.795733 202.1376 55.364267 337.7152 55.364266 138.786133 0 265.6256-19.456 380.586667-58.299733 13.4144-4.5056 22.766933-16.384 24.234666-30.208l0.2048-3.822933V437.998933l-0.887466-5.9392C880.298667 344.610133 720.657067 268.834133 523.025067 266.103467L512 266.0352z" fill="#333333" p-id="19378"></path><path d="M512 238.933333c215.620267 0 392.2944 83.285333 408.405333 189.0304H921.6v249.207467c0 26.9312-17.066667 50.858667-42.564267 59.5968-89.770667 30.8224-176.571733 48.810667-260.437333 53.998933-42.3936 2.594133 11.1616-62.2592-117.8624-62.2592s-82.944 64.443733-117.179733 64c-76.151467-1.024-156.8768-19.0464-242.107734-54.101333A63.010133 63.010133 0 0 1 102.4 680.106667V427.963733h1.194667C119.7056 322.218667 296.379733 238.933333 512 238.933333z" fill="#D3EDCA" p-id="19379"></path><path d="M920.405333 427.963733H921.6v249.207467c0 26.9312-17.066667 50.858667-42.564267 59.5968-89.770667 30.8224-176.571733 48.810667-260.437333 53.998933-42.3936 2.594133 11.1616-62.2592-117.8624-62.2592s-82.944 64.443733-117.179733 64c-76.151467-1.024-156.8768-19.0464-242.107734-54.101333A63.010133 63.010133 0 0 1 102.4 680.891733c94.4128 31.4368 177.595733 47.650133 249.6512 48.605867 34.2016 0.443733 19.6608-64.034133 148.6848-64.034133s106.973867 64.853333 149.367467 62.2592c76.834133-4.7104 136.430933-20.241067 178.722133-46.4896 18.500267-11.502933 29.764267-31.744 29.764267-53.521067V364.9536h-1.194667a118.306133 118.306133 0 0 0-15.837867-42.871467c44.4416 30.037333 72.840533 66.389333 78.848 105.8816z" fill="#A0C394" p-id="19380"></path><path d="M512 238.933333c215.620267 0 392.328533 83.285333 408.405333 189.098667L921.6 427.9296v249.207467c0 26.9312-17.066667 50.858667-42.564267 59.5968-89.770667 30.8224-176.571733 48.810667-260.437333 53.998933-11.332267 0.682667-15.803733-3.413333-18.7392-9.796267l-1.365333-3.413333-3.242667-9.6256-1.6384-4.164267c-7.168-16.827733-24.064-35.259733-92.8768-35.259733-63.0784 0-84.309333 15.394133-93.525333 31.061333l-2.2528 4.3008-1.774934 4.232534-2.082133 6.075733-1.8432 5.597867-1.262933 3.310933-1.501867 2.935467c-2.4576 4.096-6.109867 6.587733-12.970667 6.485333-76.117333-1.024-156.842667-19.0464-242.0736-54.101333A63.010133 63.010133 0 0 1 102.4 680.106667V427.963733l1.194667 0.034134C119.637333 322.2528 296.379733 238.933333 512 238.933333z m0 27.101867C312.968533 266.0352 149.947733 340.241067 131.2768 427.2128l-0.887467 4.846933-0.887466 5.7344v242.346667c0 13.2096 7.2704 25.258667 18.705066 31.505067l3.549867 1.706666c76.731733 31.5392 149.265067 48.708267 217.565867 51.643734l6.212266 0.170666 2.935467-8.533333 0.785067-1.9456 1.604266-3.413333 2.184534-3.9936c17.2032-30.788267 53.316267-45.8752 117.691733-45.8752 63.522133 0 98.440533 14.779733 114.824533 45.499733l2.048 3.925333 1.536 3.4816 3.072 8.977067 13.5168-0.955733c69.256533-5.870933 140.6976-20.6848 214.357334-44.475734l20.138666-6.690133c13.312-4.573867 22.6304-16.418133 24.064-30.208l0.2048-3.754667V437.998933l-0.887466-5.973333C880.3328 344.644267 720.6912 268.834133 523.025067 266.103467L512 266.0352z" fill="#333333" p-id="19381"></path><path d="M228.420267 380.7232a283.579733 78.779733 0 1 0 567.159466 0 283.579733 78.779733 0 1 0-567.159466 0Z" fill="#A0C394" p-id="19382"></path><path d="M521.966933 302.011733l19.626667 0.341334c12.970667 0.4096 25.7024 1.024 38.0928 1.8432l18.3296 1.4336c6.0416 0.546133 11.946667 1.1264 17.8176 1.774933l17.271467 2.048 16.622933 2.389333 15.9744 2.6624 7.714133 1.4336 14.916267 3.072c65.3312 14.4384 107.246933 36.727467 107.246933 61.713067S753.664 427.997867 688.3328 442.368l-14.916267 3.072c-2.525867 0.512-5.12 0.989867-7.714133 1.4336l-15.9744 2.696533-16.622933 2.389334-17.271467 2.048c-2.901333 0.341333-5.870933 0.6144-8.840533 0.9216l-18.090667 1.604266c-15.291733 1.194667-31.061333 2.048-47.3088 2.491734l-19.626667 0.375466-9.966933 0.068267-9.966933-0.068267-19.626667-0.341333c-12.970667-0.4096-25.7024-1.024-38.0928-1.877333l-18.3296-1.4336c-6.0416-0.512-11.946667-1.092267-17.8176-1.7408l-17.271467-2.048-16.622933-2.389334-15.9744-2.696533a617.335467 617.335467 0 0 1-7.714133-1.4336l-14.916267-3.072C270.336 428.032 228.420267 405.7088 228.420267 380.7232S270.336 333.448533 335.6672 319.010133l14.916267-3.072 7.714133-1.4336 15.9744-2.6624 16.622933-2.389333 17.271467-2.048c2.901333-0.341333 5.870933-0.648533 8.840533-0.9216l18.090667-1.604267c15.291733-1.194667 31.061333-2.048 47.3088-2.491733l19.626667-0.375467h19.933866z m-19.456 27.067734l-18.773333 0.4096-18.432 0.750933-9.0112 0.512-17.749333 1.2288-8.669867 0.750933-16.9984 1.672534-8.260267 0.955733-16.0768 2.048-15.428266 2.286933a749.226667 749.226667 0 0 0-7.4752 1.2288l-14.336 2.56-13.550934 2.730667-12.6976 2.8672-6.0416 1.467733-11.3664 3.037867-10.376533 3.072c-1.6384 0.512-3.242667 1.024-4.778667 1.570133l-8.874666 3.140267c-1.365333 0.512-2.696533 1.024-3.959467 1.570133l-7.168 3.140267c-10.922667 5.188267-16.964267 10.24-16.964267 14.6432 0 4.369067 6.007467 9.454933 16.964267 14.677333l7.168 3.106134 3.9936 1.570133 8.8064 3.140267 9.898667 3.106133 5.290666 1.536 11.3664 3.003733 12.288 2.935467 13.141334 2.798933 6.8608 1.365334 14.336 2.56 15.086933 2.389333 15.7696 2.184533 8.123733 1.024 16.6912 1.774934c2.833067 0.3072 5.666133 0.580267 8.533334 0.8192l17.5104 1.399466c5.9392 0.4096 11.946667 0.785067 17.988266 1.092267l18.397867 0.750933 18.773333 0.375467 9.489067 0.068267 9.489067-0.068267 18.773333-0.375467 18.432-0.750933 9.0112-0.512 17.749333-1.2288 8.669867-0.750933 16.9984-1.706667c2.7648-0.273067 5.5296-0.580267 8.260267-0.9216l16.0768-2.048 15.428266-2.286933 7.4752-1.2288 14.336-2.594134 13.550934-2.730666 12.6976-2.8672c2.048-0.477867 4.096-0.955733 6.0416-1.467734l11.3664-3.003733 10.376533-3.072c1.6384-0.546133 3.242667-1.024 4.778667-1.570133l8.874666-3.140267c1.365333-0.512 2.696533-1.024 3.959467-1.570133l7.168-3.140267c10.922667-5.188267 16.964267-10.24 16.964267-14.677333 0-4.369067-6.007467-9.4208-16.964267-14.609067l-7.168-3.140267a181.8624 181.8624 0 0 0-3.9936-1.570133l-8.8064-3.140267-9.898667-3.106133-5.290666-1.536-11.3664-3.037867-12.288-2.901333-13.141334-2.798933a648.8064 648.8064 0 0 0-6.8608-1.365334l-14.336-2.56-15.086933-2.389333-15.7696-2.184533-8.123733-1.024-16.6912-1.809067a897.501867 897.501867 0 0 0-8.533334-0.785067l-17.5104-1.399466a924.023467 924.023467 0 0 0-17.988266-1.092267l-18.397867-0.750933-18.773333-0.4096h-18.978134z" fill="#333333" p-id="19383"></path><path d="M512 364.9536c116.292267 0 216.234667 19.456 259.959467 47.274667-43.7248 27.818667-143.701333 47.274667-259.959467 47.274666-116.258133 0-216.200533-19.456-259.959467-47.274666C295.799467 384.4096 395.741867 364.9536 512 364.9536z" fill="#7E9F73" p-id="19384"></path><path d="M512 364.9536c116.292267 0 216.234667 19.456 259.9936 47.274667-43.758933 27.818667-143.701333 47.274667-259.9936 47.274666s-216.234667-19.456-259.9936-47.274666C295.765333 384.4096 395.707733 364.9536 512 364.9536z m0 27.101867c-70.144 0-135.236267 7.441067-183.296 19.387733l-2.9696 0.785067 3.003733 0.785066c45.3632 11.264 105.949867 18.5344 171.6224 19.319467l11.639467 0.068267c65.1264 0 125.917867-6.417067 172.714667-16.896l13.5168-3.2768-2.9696-0.785067c-45.329067-11.264-105.949867-18.5344-171.6224-19.319467L512 392.055467z" fill="#333333" p-id="19385"></path><path d="M627.4048 590.677333a8.635733 8.635733 0 0 1 0-11.025066 31.300267 31.300267 0 0 0 7.0656-21.640534c-0.887467-15.36-12.9024-27.648-27.306667-28.091733a27.136 27.136 0 0 0-20.992 9.147733c-5.085867 5.597867-12.322133 12.151467-19.694933 12.151467H425.745067c-7.031467 0-13.755733-6.656-18.602667-12.049067a27.136 27.136 0 0 0-18.466133-9.1136c-16.2816-1.194667-29.832533 12.629333-29.832534 29.696 0 7.748267 2.730667 14.779733 7.2704 20.036267a8.123733 8.123733 0 0 1 0 10.5472 31.3344 31.3344 0 0 0-7.2704 21.845333c1.024 15.36 12.970667 27.648 27.409067 27.989334 8.260267 0.238933 15.633067-3.413333 20.8896-9.216 5.085867-5.632 12.322133-10.581333 19.694933-10.581334h143.018667c5.973333 0 11.5712 4.7104 15.530667 9.5232a27.716267 27.716267 0 0 0 19.2512 10.171734c16.2816 1.024 29.832533-12.629333 29.832533-29.730134a30.6176 30.6176 0 0 0-7.0656-19.6608z" fill="#d3edca" p-id="19386" data-spm-anchor-id="a313x.7781069.0.i8" class=""></path><path d="M607.505067 519.441067a37.4784 37.4784 0 0 0-26.2144 9.659733l-2.935467 2.901333c-5.0176 5.563733-9.5232 8.704-11.8784 8.704H425.745067c-1.774933 0-5.632-2.833067-10.786134-8.533333a37.614933 37.614933 0 0 0-25.6-12.629333c-22.391467-1.604267-40.994133 17.1008-40.994133 40.2432l0.2048 4.232533c0.682667 7.031467 3.140267 13.653333 7.0656 19.319467l1.3312 1.706666 1.365333-1.774933a41.984 41.984 0 0 0-9.966933 29.4912c1.365333 20.753067 17.646933 37.444267 37.614933 37.888 9.728 0.3072 18.875733-3.2768 26.043734-9.728l2.935466-2.935467c3.959467-4.437333 8.6016-7.099733 11.8784-7.099733h143.018667c1.1264 0 3.2768 1.297067 5.632 3.6864l1.809067 1.979733c6.690133 8.123733 16.1792 13.175467 26.5216 13.994667 22.596267 1.4336 41.130667-17.134933 41.130666-40.209067l-0.273066-4.846933a41.130667 41.130667 0 0 0-6.382934-17.749333l-1.9456-2.594134-0.887466 1.262934c6.621867-8.021333 10.0352-18.261333 9.489066-28.945067-1.194667-20.6848-17.442133-37.376-37.444266-38.024533z m-3.549867 21.162666l2.8672-0.2048c8.874667 0.341333 16.5888 8.192 17.134933 18.2272a20.923733 20.923733 0 0 1-2.901333 11.8784l-1.7408 2.491734a19.114667 19.114667 0 0 0-1.911467 21.6064l1.9456 2.798933a20.138667 20.138667 0 0 1 4.608 12.936533c0 11.264-8.635733 19.899733-18.6368 19.2512a17.169067 17.169067 0 0 1-11.844266-6.417066c-6.587733-7.9872-14.472533-13.277867-23.586134-13.277867h-143.018666c-10.171733 0-19.933867 5.597867-27.511467 13.994667a16.4864 16.4864 0 0 1-12.8 5.802666c-8.874667-0.238933-16.5888-8.0896-17.237333-18.158933a20.821333 20.821333 0 0 1 3.003733-11.946667l1.809067-2.491733a18.5344 18.5344 0 0 0 0.068266-24.029867 20.2752 20.2752 0 0 1-4.846933-13.312c0-11.264 8.635733-19.933867 18.568533-19.2512a16.6912 16.6912 0 0 1 11.400534 5.700267c9.1136 10.103467 16.418133 15.530667 26.4192 15.530667h140.731733c10.205867 0 18.773333-5.9392 27.477333-15.633067a16.827733 16.827733 0 0 1 10.001067-5.495467z" fill="#d3edca" p-id="19387" data-spm-anchor-id="a313x.7781069.0.i10" class=""></path><path d="M184.456533 420.010667a15.7696 15.7696 0 0 1 22.186667 1.911466c18.568533 22.084267 47.240533 36.693333 86.698667 43.6224a15.7696 15.7696 0 1 1-5.461334 31.061334c-46.2848-8.157867-81.578667-26.180267-105.335466-54.408534a15.7696 15.7696 0 0 1 1.911466-22.186666z" fill="#EEFFE8" p-id="19388"></path></svg>